<?xml version="1.0" encoding="UTF-8" standalone="no"?>
<svg
   viewBox="0 0 330 120"
   width="330"
   height="120"
   version="1.1"
   id="svg9"
   xmlns="http://www.w3.org/2000/svg"
   xmlns:svg="http://www.w3.org/2000/svg">
  <defs
     id="defs9" />
  <!-- Icon circle -->
  <g
     transform="matrix(2,0,0,2,7.2393112,4)"
     id="g3">
    <path
       style="fill:#e0e0f0"
       d="M 50.996748,28 A 22.996748,22.996748 0 0 1 28.014597,50.996743 22.996748,22.996748 0 0 1 5.0032706,28.029193 22.996748,22.996748 0 0 1 27.95621,5.0032937 22.996748,22.996748 0 0 1 50.996674,27.941613"
       id="path1" />
    <path
       style="fill:#1a1a2e"
       d="M 27.9999,51.9062 C 41.0546,51.9062 51.9063,41.0547 51.9063,28 51.9063,14.9219 41.0312,4.0938 27.9765,4.0938 14.8983,4.0938 4.0937,14.9219 4.0937,28 c 0,13.0547 10.8281,23.9062 23.9062,23.9062 z m -2.3672,-8.414 c -0.7734,0 -1.3125,-0.5391 -1.3125,-1.2891 v -28.5 c 0,-0.7265 0.5625,-1.3125 1.3125,-1.3125 0.7031,0 1.2656,0.586 1.2656,1.3125 v 28.5 c 0,0.7266 -0.539,1.2891 -1.2656,1.2891 z m 9.4687,-3.3985 c -0.7031,0 -1.2656,-0.5859 -1.2656,-1.289 V 17.0781 c 0,-0.7031 0.5625,-1.289 1.2656,-1.289 0.75,0 1.3126,0.5625 1.3126,1.289 v 21.7266 c 0,0.7031 -0.5626,1.289 -1.3126,1.289 z M 20.8749,37.1172 c -0.7266,0 -1.3125,-0.5625 -1.3125,-1.2891 V 20.0313 c 0,-0.7032 0.5859,-1.2657 1.3125,-1.2657 0.7031,0 1.2656,0.5625 1.2656,1.2657 v 15.7968 c 0,0.7266 -0.5625,1.2891 -1.2656,1.2891 z m 9.4922,-1.875 c -0.7266,0 -1.2891,-0.5625 -1.2891,-1.2656 V 21.9062 c 0,-0.7031 0.5625,-1.2656 1.2891,-1.2656 0.7265,0 1.2891,0.5391 1.2891,1.2656 v 12.0704 c 0,0.7265 -0.5626,1.2656 -1.2891,1.2656 z m 9.5156,-2.7891 c -0.7265,0 -1.2891,-0.5391 -1.2891,-1.2656 v -6.4922 c 0,-0.7266 0.5626,-1.2656 1.2891,-1.2656 0.7266,0 1.2891,0.539 1.2891,1.2656 v 6.4922 c 0,0.7265 -0.5625,1.2656 -1.2891,1.2656 z M 16.0936,31.2813 c -0.7031,0 -1.289,-0.5626 -1.289,-1.2657 v -4.1484 c 0,-0.7032 0.5859,-1.2656 1.289,-1.2656 0.7266,0 1.3126,0.5624 1.3126,1.2656 v 4.1484 c 0,0.7031 -0.586,1.2657 -1.3126,1.2657 z"
       id="path2" />
    <path
       style="fill:none;stroke:#e0e0f0;stroke-width:1.13724"
       d="M 51.350691,28 A 23.350691,23.350691 0 0 1 28.014821,51.350686 23.350691,23.350691 0 0 1 4.649328,28.029643 23.350691,23.350691 0 0 1 27.955536,4.6493515 23.350691,23.350691 0 0 1 51.350616,27.940715"
       id="path3" />
  </g>
  <!-- Title 'dictée' as Libre Baskerville Bold Italic paths (SIL OFL 1.1) -->
  <g
     transform="translate(137.23931,18)"
     fill="#e0e0f0"
     id="g9">
    <path
       transform="matrix(0.062,0,0,-0.062,0,62)"
       d="M 152,-10 Q 114,-10 80.5,9.5 47,29 27,65 7,101 7,151 q 0,51 20,105.5 20,54.5 54.5,105 34.5,50.5 78,91 43.5,40.5 90.5,64 47,23.5 93,23.5 35,0 57.5,-14 22.5,-14 35.5,-40 l 56,201 q 10,35 12.5,47 2.5,12 2.5,19 0,19 -17.5,25.5 Q 472,785 412,785 l 13,45 H 662 L 552,428 Q 525,328 507.5,265 490,202 482,165.5 474,129 474,108 q 0,-22 8,-31 8,-9 17,-9 20,0 44,34 24,34 45,89 l 48,-9 Q 599,84 555.5,37 512,-10 447,-10 q -45,0 -69,23 -24,23 -24,69 0,8 1,20 1,12 4,23 l -6,2 Q 332,85 298,54 264,23 226,6.5 188,-10 152,-10 Z m 44,75 q 27,0 56.5,24 29.5,24 57,63 27.5,39 49.5,85 22,46 35,92 13,46 13,83 0,33 -11.5,49 Q 384,477 359,477 329,477 298.5,455 268,433 240.5,396.5 213,360 191,315.5 169,271 156.5,226.5 144,182 144,144 q 0,-39 14,-59 14,-20 38,-20 z"
       id="path4" />
    <path
       transform="matrix(0.062,0,0,-0.062,40.7,62)"
       d="M 124,-10 Q 87,-10 67,6.5 47,23 47,59 47,85 56.5,117.5 66,150 84,202 l 45,128 q 14,41 19.5,58.5 5.5,17.5 5.5,31.5 0,13 -3.5,18.5 Q 147,444 140,444 127,444 109,427 91,410 74.5,389 58,368 52,357 l -34,21 q 14,26 39,54.5 25,28.5 56.5,53 31.5,24.5 65.5,39.5 34,15 65,15 31,0 47.5,-16 16.5,-16 16.5,-49 0,-19 -6.5,-43.5 Q 295,407 281.5,369 268,331 245,269 L 208,168 q -1,-4 -6,-16.5 -5,-12.5 -9.5,-27 Q 188,110 188,100 q 0,-9 5,-16 5,-7 16,-7 14,0 29.5,11 15.5,11 30,28 14.5,17 27,35 12.5,18 20.5,32 l 35,-21 Q 336,133 313.5,102.5 291,72 261.5,46.5 232,21 197,5.5 162,-10 124,-10 Z m 173,684 q -31,0 -54,21 -23,21 -23,55 0,33 22.5,56.5 Q 265,830 297,830 332,830 354,806.5 376,783 376,751 376,719 352.5,696.5 329,674 297,674 Z"
       id="path5" />
    <path
       transform="matrix(0.062,0,0,-0.062,64.6,62)"
       d="m 357,195 47,-24 Q 360,81 303,35.5 246,-10 179,-10 134,-10 96.5,11 59,32 36,71.5 13,111 13,167 13,217 31.5,269.5 50,322 82,370.5 114,419 156,457 198,495 245.5,517.5 293,540 342,540 395,540 433.5,512 472,484 472,435 472,409 458.5,389.5 445,370 414,370 q -22,0 -36,11 -14,11 -14,31 0,17 6,29.5 6,12.5 6,22.5 0,11 -10,16.5 -10,5.5 -22,5.5 -31,0 -64.5,-30 Q 246,426 217.5,377.5 189,329 171.5,271.5 154,214 154,158 154,110 169,84.5 184,59 212,59 q 24,0 50.5,18 26.5,18 51.5,49 25,31 43,69 z"
       id="path6" />
    <path
       transform="matrix(0.062,0,0,-0.062,93.4,62)"
       d="M 123,-10 Q 71,-10 51.5,5.5 32,21 32,55 q 0,20 7,54.5 7,34.5 24,92.5 l 74,245 H 61 l 16,56 h 77 l 49,162 H 335 L 286,503 h 99 L 368,447 H 269 L 186,172 q -7,-24 -11.5,-41 -4.5,-17 -5.5,-31 0,-9 4.5,-16 4.5,-7 15.5,-7 18,0 37.5,12 19.5,12 38,30 18.5,18 33,35 14.5,17 21.5,27 l 29,-17 Q 331,130 304,98.5 277,67 244.5,42.5 212,18 180.5,4 149,-10 123,-10 Z"
       id="path7" />
    <path
       transform="matrix(0.062,0,0,-0.062,117.7,62)"
       d="M 177,-10 Q 99,-10 54.5,33.5 10,77 10,156 10,211 29.5,265.5 49,320 83,369.5 q 34,49.5 78,88 44,38.5 92.5,60.5 48.5,22 97.5,22 56,0 92.5,-25.5 Q 480,489 480,447 480,411 454,374.5 428,338 382.5,305 337,272 278,245.5 219,219 153,202 151,189 149.5,175.5 148,162 148,150 148,104 165.5,79.5 183,55 215,55 250,55 291.5,85.5 333,116 365,168 l 42,-30 Q 365,66 306,28 247,-10 177,-10 Z m -10,268 q 57,17 101,45 44,28 69.5,63.5 25.5,35.5 25.5,74.5 0,42 -32,42 -24,0 -48,-20.5 Q 259,442 236.5,408.5 214,375 196,335.5 178,296 167,258 Z m 180,393 h -67 l 118,119 q 20,20 36,31.5 16,11.5 35,11.5 23,0 39.5,-15 16.5,-15 16.5,-36 0,-14 -9.5,-25.5 Q 506,725 486,716 Z"
       id="path8" />
    <path
       transform="matrix(0.062,0,0,-0.062,147.6,62)"
       d="M 177,-10 Q 99,-10 54.5,33.5 10,77 10,156 10,211 29.5,265.5 49,320 83,369.5 q 34,49.5 78,88 44,38.5 92.5,60.5 48.5,22 97.5,22 56,0 92.5,-25.5 Q 480,489 480,447 480,411 454,374.5 428,338 382.5,305 337,272 278,245.5 219,219 153,202 151,189 149.5,175.5 148,162 148,150 148,104 165.5,79.5 183,55 215,55 250,55 291.5,85.5 333,116 365,168 l 42,-30 Q 365,66 306,28 247,-10 177,-10 Z m -10,268 q 57,17 101,45 44,28 69.5,63.5 25.5,35.5 25.5,74.5 0,42 -32,42 -24,0 -48,-20.5 Q 259,442 236.5,408.5 214,375 196,335.5 178,296 167,258 Z"
       id="path9" />
  </g>
</svg>
