<svg xmlns="http://www.w3.org/2000/svg" width="120" height="48" viewBox="0 0 120 48">
  <rect width="120" height="48" rx="6" fill="#1e1e2e"/>
  <rect x="8"  y="20" width="6" height="8"  rx="1.5" fill="#1a7a3a" opacity="0.5"/>
  <rect x="17" y="16" width="6" height="16" rx="1.5" fill="#2e9a4a" opacity="0.65"/>
  <rect x="26" y="11" width="6" height="26" rx="1.5" fill="#50c878" opacity="0.75"/>
  <rect x="35" y="7"  width="6" height="34" rx="1.5" fill="#a6e3a1" opacity="0.85"/>
  <rect x="44" y="4"  width="6" height="40" rx="1.5" fill="#b0e8c0" opacity="0.95"/>
  <rect x="53" y="2"  width="6" height="44" rx="1.5" fill="#a0dde8"/>
  <rect x="62" y="2"  width="6" height="44" rx="1.5" fill="#89cefa"/>
  <rect x="71" y="4"  width="6" height="40" rx="1.5" fill="#89b4fa" opacity="0.95"/>
  <rect x="80" y="7"  width="6" height="34" rx="1.5" fill="#6a9ae0" opacity="0.85"/>
  <rect x="89" y="11" width="6" height="26" rx="1.5" fill="#4a78c8" opacity="0.75"/>
  <rect x="98" y="16" width="6" height="16" rx="1.5" fill="#2a56a8" opacity="0.65"/>
  <rect x="107" y="20" width="6" height="8"  rx="1.5" fill="#1a2db3" opacity="0.5"/>
</svg>
