<svg id="Layer_1" data-name="Layer 1" xmlns="http://www.w3.org/2000/svg" viewBox="0 0 122.88 116.67"><title>team-meeting</title><path d="M119.14,12.59V53.17A6.11,6.11,0,0,1,113,59.28h-.13a15.57,15.57,0,0,0,.46-3.77h0c0-.23,0-.45,0-.68a1.7,1.7,0,0,0,1.4-1.66V12.59H8.16V53.17a1.7,1.7,0,0,0,1.4,1.66c0,.23,0,.45,0,.68h0A15.57,15.57,0,0,0,10,59.28H9.85a6.13,6.13,0,0,1-4.31-1.79h0a6.09,6.09,0,0,1-1.79-4.31V12.59H3.11A3.12,3.12,0,0,1,0,9.47V3.11A3.12,3.12,0,0,1,3.11,0H119.77a3.12,3.12,0,0,1,3.11,3.11V9.47a3.12,3.12,0,0,1-3.11,3.12ZM78.32,77.08H44.56a.38.38,0,0,0-.37.37v6.4a.37.37,0,0,0,.37.37H58.39v23.29a.51.51,0,0,0,.5.5h5.65a.51.51,0,0,0,.5-.5V84.23H78.32a.38.38,0,0,0,.37-.37v-6.4a.38.38,0,0,0-.37-.38ZM61.39,29.94A8.36,8.36,0,1,1,53,38.29a8.35,8.35,0,0,1,8.35-8.35Zm-13,24.35A21.3,21.3,0,0,0,44.37,65.8a37.16,37.16,0,0,0-.65,4.32c-.08,2.09.36,4.39,3.22,4.38,3.49,0,3.73-2.18,4-4.6l.52-4.39a10.33,10.33,0,0,1,.77-3.7,6.15,6.15,0,0,1,1-1.61l.05,2.5h0l0,11H69.54l.07-11h0l0-2.5a6.15,6.15,0,0,1,1,1.61,10.33,10.33,0,0,1,.77,3.7l.52,4.39c.29,2.42.53,4.6,4,4.6,2.85,0,3.29-2.29,3.21-4.38a37.16,37.16,0,0,0-.65-4.32A20.88,20.88,0,0,0,74,53.7c-5.56-6.41-20-6.4-25.52.59Zm63.72,58.21a1.22,1.22,0,0,0-.34-.7,15.57,15.57,0,0,0-5.38-3.48,18.59,18.59,0,0,0-4.73-1.13l.31-1.83H113.4a2.17,2.17,0,0,0,2.16-2.16c0-8.94-2.1-16.71,0-26.88.62-3-5.59-3.45-5.59.16v22.9H88.44c-1.93,0-2.16,4-2.16,5.51a.48.48,0,0,0,.48.47H98.18l.44,1.79a18.22,18.22,0,0,0-5,1,15.67,15.67,0,0,0-5.22,3.12,1.23,1.23,0,0,0-.37,1.21,2,2,0,0,0-.92,1.84,2.3,2.3,0,0,0,4.59,0,2,2,0,0,0-.94-1.85,13.42,13.42,0,0,1,3.69-2,15.28,15.28,0,0,1,4.81-.92l.26,2.48v.11a2.2,2.2,0,0,0-1.67,2.21,2.29,2.29,0,0,0,4.58,0,2.19,2.19,0,0,0-1.66-2.2v-.12l.18-2.46a15.45,15.45,0,0,1,4.59,1h0a13.53,13.53,0,0,1,3.67,2.13,1.84,1.84,0,0,0-.69,1.64,2.53,2.53,0,0,0,2.29,2.29,2.48,2.48,0,0,0,2.3-2.29,2,2,0,0,0-1-1.88Zm-101.44,0a1.28,1.28,0,0,1,.34-.7,15.57,15.57,0,0,1,5.38-3.48,18.59,18.59,0,0,1,4.73-1.13l-.31-1.83H9.48a2.17,2.17,0,0,1-2.16-2.16c0-8.94,2.1-16.71,0-26.88-.62-3,5.59-3.45,5.59.16v22.9H34.44c1.93,0,2.16,4,2.16,5.51a.48.48,0,0,1-.48.47H24.7l-.44,1.79a18.22,18.22,0,0,1,5,1,15.67,15.67,0,0,1,5.22,3.12,1.23,1.23,0,0,1,.37,1.21,2,2,0,0,1,.92,1.84,2.48,2.48,0,0,1-2.3,2.29,2.48,2.48,0,0,1-2.29-2.29,2,2,0,0,1,.94-1.85,13.42,13.42,0,0,0-3.69-2,15.28,15.28,0,0,0-4.81-.92l-.26,2.48v.11a2.2,2.2,0,0,1,1.67,2.21,2.29,2.29,0,1,1-4.58,0,2.19,2.19,0,0,1,1.66-2.2v-.12l-.18-2.46a15.45,15.45,0,0,0-4.59,1h0a13.69,13.69,0,0,0-3.67,2.13,1.84,1.84,0,0,1,.69,1.64,2.53,2.53,0,0,1-2.29,2.29,2.48,2.48,0,0,1-2.3-2.29,2,2,0,0,1,1-1.88ZM33.63,87.43h10.9a4.2,4.2,0,0,1,4.2,4.19v5.26h0v14.3H40.29V98.08c0-1.85-.7-1.2-2.77-1.2-4.94,0-9.82,0-14.75,0a6.32,6.32,0,0,1-6.31-6.31V71.8a6.44,6.44,0,0,1,6.42-6.41c15.34,0,10.92,11.42,10.75,22Zm55.62,0H78.35a4.2,4.2,0,0,0-4.2,4.19c0,6.87,0,12.65,0,19.56h8.39V98.08c0-1.85.7-1.2,2.77-1.2,4.94,0,9.83,0,14.75,0a6.32,6.32,0,0,0,6.31-6.31V71.8A6.44,6.44,0,0,0,100,65.39c-15.34,0-10.92,11.42-10.75,22ZM98,47.07a8.44,8.44,0,1,0,8.44,8.44A8.44,8.44,0,0,0,98,47.07Zm-73.14,0a8.44,8.44,0,1,1-8.44,8.44,8.44,8.44,0,0,1,8.44-8.44Z"/></svg>