<?xml version="1.0" encoding="UTF-8" standalone="no"?>
<svg
   viewBox="0 0 64 64"
   version="1.1"
   id="svg11"
   xml:space="preserve"
   xmlns="http://www.w3.org/2000/svg"
   xmlns:svg="http://www.w3.org/2000/svg"><!-- Canary - stylized canary bird with translation arrows --><defs
     id="defs2"><linearGradient
       id="cn-g"
       x1="0"
       y1="0"
       x2="1"
       y2="1"><stop
         offset="0%"
         stop-color="#ffc107"
         id="stop1" /><stop
         offset="100%"
         stop-color="#f9a825"
         id="stop2" /></linearGradient><style
       id="current-color-scheme"
       type="text/css">.ColorScheme-Text {
        color:#dedede;
      }</style></defs><circle
     cx="32"
     cy="32"
     r="28"
     fill="url(#cn-g)"
     opacity="0.12"
     id="circle2" /><!-- Canary body (simplified) --><g
     fill="#ffc107"
     stroke="#f9a825"
     stroke-width="1"
     id="g5"><!-- Head --><circle
       cx="24"
       cy="22"
       r="9"
       id="circle3" /><!-- Body --><ellipse
       cx="26"
       cy="36"
       rx="11"
       ry="9"
       id="ellipse3" /><!-- Tail --><path
       d="M16,42 Q8,50 6,54 Q12,52 18,46"
       fill="#f9a825"
       stroke="none"
       id="path3" /><path
       d="M20,44 Q14,52 12,54 Q18,52 22,46"
       fill="#ffc107"
       stroke="none"
       id="path4" /><!-- Wing --><path
       d="M30,30 Q38,34 36,42 Q32,38 28,36 Z"
       fill="#f9a825"
       stroke="none"
       opacity="0.7"
       id="path5" /></g><!-- Eye --><circle
     cx="22"
     cy="20"
     r="2.5"
     fill="white"
     id="circle5" /><circle
     cx="22.5"
     cy="19.5"
     r="1.2"
     fill="#333"
     id="circle6" /><!-- Beak --><path
     d="M32,20 Q36,22 34,26 Q32,24 30,24 Z"
     fill="#ff6f00"
     stroke="#e65100"
     stroke-width="0.5"
     id="path6" /><!-- Translation arrows (bidirectional) --><!-- Small "A" and "B" for translation --><path
     class="ColorScheme-Text"
     d="m 43.702176,17.078412 v 1.490342 h -5.221802 v 1.485008 h 8.336093 c -0.500518,1.440016 -1.291597,2.807279 -2.366522,4.001139 -0.693341,-0.768556 -1.268759,-1.612463 -1.722823,-2.499994 h -1.493076 c 0.54428,1.21574 1.292254,2.366249 2.224982,3.402842 l -3.79806,3.744725 1.060375,1.060375 3.731324,-3.731324 2.318385,2.32112 0.566242,-1.522479 -1.896363,-1.875029 0.02137,-0.02137 c 1.297793,-1.448221 2.22553,-3.110462 2.769809,-4.87185 h 2.184914 v -1.493076 h -5.221803 v -1.490342 z m 6.343593,5.969572 -3.35744,8.953126 h 1.493077 l 0.836016,-2.238248 h 3.544382 l 0.84403,2.238248 h 1.490341 l -3.357439,-8.953126 z m 0.745198,1.9925 1.209955,3.229165 h -2.417258 z"
     fill="currentColor"
     id="path1"
     style="fill:#ffc009;fill-opacity:0.823529;stroke-width:1" /></svg>
